<svg width="35" height="30" viewBox="0 0 35 30" fill="none" xmlns="http://www.w3.org/2000/svg">
<path d="M6.98236 4.43338C6.82766 4.43338 6.67642 4.3875 6.54778 4.30155C6.41915 4.2156 6.31889 4.09343 6.25969 3.9505C6.20048 3.80756 6.18499 3.65029 6.21517 3.49855C6.24535 3.34681 6.31985 3.20743 6.42925 3.09804C6.53865 2.98864 6.67802 2.91414 6.82976 2.88396C6.9815 2.85378 7.13878 2.86927 7.28171 2.92847C7.42464 2.98768 7.54681 3.08794 7.63276 3.21657C7.71871 3.34521 7.76459 3.49644 7.76459 3.65115C7.7643 3.85852 7.68179 4.05732 7.53516 4.20395C7.38853 4.35058 7.18973 4.43309 6.98236 4.43338Z" fill="black"/>
<path d="M11.4125 28.9111C11.5581 28.404 11.9546 27.7629 12.39 27.3176C12.8254 26.8723 13.3642 26.5435 13.9575 26.3609C14.4588 25.6851 14.7698 24.8853 14.8576 24.0462C13.1408 23.0675 11.8774 21.4447 11.343 19.5314C10.6085 19.3493 9.14352 18.8467 8.43178 17.6366C8.28876 17.7443 8.16737 17.8785 8.07408 18.0319C7.98123 18.1749 7.83606 18.2753 7.67017 18.311C7.50427 18.3468 7.33107 18.3151 7.18826 18.2228C6.97955 18.096 6.73775 18.0356 6.49442 18.0494C6.2511 18.0632 6.01756 18.1506 5.82428 18.3002C5.73933 18.3694 5.63824 18.4157 5.53058 18.4347C5.42292 18.4536 5.31225 18.4445 5.20903 18.4083C5.10582 18.3721 5.01348 18.31 4.94075 18.2278C4.86802 18.1456 4.8173 18.0461 4.7934 17.9386C4.652 17.3309 4.71228 16.6932 4.96502 16.1233C5.21776 15.5534 5.649 15.0827 6.19263 14.7834C5.59949 13.7175 5.28672 12.5165 5.28405 11.2944C3.88298 10.988 0.880306 10.142 0.522232 8.45899C0.333302 7.75338 0.225475 7.02823 0.200886 6.29781C0.214096 6.20519 0.247047 6.11655 0.29747 6.03798C0.347893 5.95941 0.4146 5.89277 0.493004 5.84263C0.571404 5.79249 0.659645 5.76005 0.751671 5.74753C0.843693 5.73501 0.937313 5.7427 1.02611 5.77009C2.14918 6.09701 3.30204 6.30926 4.46728 6.40365C4.38036 6.32963 4.29185 6.25068 4.20175 6.1668C2.95713 5.00554 1.9817 4.61771 0.725693 4.78091C0.635048 4.79286 0.542915 4.78518 0.455452 4.75838C0.367992 4.73158 0.287216 4.68628 0.218521 4.6255C0.149826 4.56473 0.094799 4.48987 0.0571136 4.40595C0.0194283 4.32202 -4.19617e-05 4.23096 0 4.13884C0 4.01672 0.024601 1.13909 2.1521 0.275354C3.50837 -0.275674 4.2135 0.118446 4.77981 0.435222C5.02856 0.605827 5.31773 0.706957 5.61788 0.728315C5.7321 0.730905 5.86761 0.728315 6.01819 0.728315C7.51365 0.713512 11.0099 0.680576 11.567 4.30315C11.6162 4.62289 11.6592 4.92745 11.7007 5.21758C12.0926 7.97791 12.2395 9.01113 15.3589 9.72351C19.4006 10.6468 23.0022 12.039 26.1503 19.7608C26.3534 20.3522 26.7304 20.8672 27.231 21.2374C27.7317 21.6076 28.3324 21.8154 28.9532 21.8332C29.653 21.8604 30.3469 21.6942 30.9597 21.3525C31.5725 21.0108 32.0808 20.5067 32.4296 19.8948C32.9342 18.8823 32.7322 17.7599 31.845 16.6482C31.7425 16.52 31.6923 16.3574 31.7045 16.1932C31.7168 16.0291 31.7906 15.8759 31.911 15.7646C32.0314 15.6534 32.1892 15.5925 32.3526 15.5943C32.5159 15.5961 32.6724 15.6605 32.7903 15.7745C32.8858 15.867 35.133 18.0689 34.9938 20.8207C34.9167 22.3679 34.1142 23.7527 32.6092 24.9365C31.311 25.9902 29.6929 26.5625 28.0259 26.5574C25.6314 26.5574 23.3228 25.4528 21.5255 24.263C21.5204 24.7097 21.6198 25.1512 21.8156 25.552C21.8595 25.6433 21.8815 25.7437 21.8798 25.8451C21.8782 25.9465 21.8529 26.0461 21.8061 26.1359C21.3816 27.0022 21.137 27.9466 21.0874 28.9114C21.0874 29.0832 21.2079 29.8785 21.0874 30H11.2669C11.2669 29.8282 11.2669 29.4181 11.4125 28.9111ZM31.8181 23.9152C33.0136 22.9748 33.65 21.9138 33.7095 20.7618C33.7189 20.5783 33.7145 20.3944 33.6963 20.2115C33.657 20.307 33.6166 20.3966 33.5766 20.4758C33.1178 21.3105 32.4379 22.0005 31.6127 22.4686C30.7875 22.9367 29.8495 23.1646 28.9033 23.1269C28.0364 23.0991 27.1976 22.8105 26.4949 22.2982C25.7921 21.786 25.2576 21.0736 24.96 20.2526C22.0411 13.0941 18.8897 11.858 15.0736 10.9862C11.0911 10.0769 10.8266 8.2166 10.4267 5.40077C10.3863 5.11545 10.3437 4.81569 10.2952 4.50114C9.93826 2.18045 7.90808 2.00356 6.02884 2.0217C5.86358 2.0217 5.71557 2.02429 5.58813 2.0217C5.07831 1.99991 4.58322 1.84289 4.15291 1.56651C3.69457 1.31006 3.4184 1.155 2.62954 1.47511C1.79514 1.81372 1.47746 2.77959 1.35627 3.44941C2.65451 3.47716 3.80365 4.03152 5.07178 5.21462C6.17134 6.24082 6.83974 6.2064 6.82137 6.2101C6.98244 6.18271 7.14782 6.21816 7.28388 6.30922C7.41995 6.40029 7.5165 6.54014 7.55392 6.70036C7.59133 6.86058 7.56679 7.02914 7.4853 7.17179C7.4038 7.31444 7.27146 7.42047 7.11518 7.46832C5.33106 7.99456 2.91196 7.56861 1.59462 7.25702C1.63795 7.49756 1.69708 7.80175 1.77824 8.18477C1.94865 8.98597 4.38574 9.82897 6.07952 10.1295C6.24307 10.1586 6.38909 10.2504 6.48698 10.3856C6.58488 10.5208 6.62706 10.689 6.60469 10.8548C6.40564 12.3251 7.05017 13.6917 7.4189 14.3334C8.01688 14.1304 8.64361 14.0265 9.27463 14.0259C9.35982 14.0321 9.44293 14.0553 9.5191 14.0943C9.59528 14.1332 9.66298 14.187 9.71827 14.2526C9.77356 14.3182 9.81532 14.3943 9.8411 14.4763C9.86689 14.5584 9.87618 14.6448 9.86844 14.7305C9.86071 14.8162 9.83609 14.8995 9.79604 14.9755C9.75599 15.0515 9.7013 15.1187 9.63517 15.1732C9.56905 15.2277 9.49281 15.2683 9.41091 15.2928C9.32902 15.3172 9.24311 15.325 9.15821 15.3156C8.54129 15.3604 7.934 15.4946 7.35499 15.7138C7.34875 15.716 7.34214 15.7138 7.33589 15.7171C7.32965 15.7204 7.31753 15.726 7.30725 15.7286C7.02846 15.7776 6.7679 15.9013 6.55292 16.0867C6.33793 16.2722 6.17644 16.5125 6.0854 16.7825C6.50597 16.7063 6.93886 16.7388 7.34361 16.8769C7.53161 16.654 7.76956 16.4795 8.03777 16.3676C8.30599 16.2558 8.59677 16.2099 8.88607 16.2337C9.0025 16.2522 9.11166 16.3026 9.20161 16.3793C9.29157 16.4561 9.35888 16.5562 9.39619 16.6689C9.65841 17.4608 10.5064 17.8983 11.1568 18.1247C11.1383 16.9592 11.4201 15.8087 11.9747 14.7856C12.0161 14.7113 12.0716 14.646 12.138 14.5933C12.2045 14.5406 12.2806 14.5016 12.362 14.4785C12.4434 14.4555 12.5285 14.4488 12.6124 14.4589C12.6964 14.469 12.7776 14.4956 12.8513 14.5373C12.9251 14.579 12.9899 14.6349 13.0422 14.7019C13.0945 14.7689 13.1332 14.8455 13.1561 14.9276C13.179 15.0096 13.1856 15.0954 13.1756 15.18C13.1656 15.2646 13.1391 15.3464 13.0977 15.4207C12.543 16.4705 12.3336 17.6707 12.4999 18.8482C12.6973 19.7545 13.0945 20.6043 13.6621 21.3349C14.2297 22.0655 14.9531 22.6581 15.7787 23.0688C15.8969 23.1199 15.9972 23.2055 16.0666 23.3146C16.136 23.4238 16.1713 23.5513 16.168 23.6809C16.1483 25.0364 15.6605 26.3426 14.7886 27.3749C14.7073 27.4605 14.6043 27.5221 14.4907 27.5529C14.1323 27.641 13.7979 27.8087 13.512 28.0436C13.2261 28.2786 12.9958 28.575 12.8381 28.9111H16.0938C16.4067 26.5526 17.7321 24.4048 18.2804 23.6013C17.9087 22.7793 17.7593 21.8729 17.8474 20.9739C17.6366 20.0843 17.6936 19.1515 18.0111 18.2947C18.3286 17.4378 18.8922 16.6957 19.6301 16.163C19.7656 16.0611 19.9356 16.0171 20.1031 16.0407C20.2706 16.0642 20.4222 16.1533 20.5249 16.2887C20.6277 16.4241 20.6733 16.5948 20.652 16.7638C20.6306 16.9329 20.544 17.0867 20.4109 17.1918C19.8787 17.562 19.4679 18.0835 19.2309 18.6899C18.9938 19.2962 18.9413 19.9599 19.0799 20.5964C19.9827 21.5242 26.6193 28.0062 31.8181 23.9166V23.9152ZM20.5321 25.8236C20.228 25.0583 20.1602 24.2185 20.3374 23.4137C19.9312 23.1014 19.5662 22.7994 19.2562 22.5285C19.3392 22.8157 19.4518 23.0933 19.5923 23.3567C19.6506 23.4663 19.6764 23.5905 19.6666 23.7145C19.6567 23.8384 19.6117 23.9569 19.5368 24.0558C19.5177 24.081 17.7905 26.3905 17.3939 28.9096H19.8049C19.847 27.8437 20.0939 26.7962 20.5321 25.8251V25.8236Z" fill="#3E4345"/>
</svg>
